<?xml version="1.0" standalone="yes"?>
<svg xmlns="http://www.w3.org/2000/svg" width="74" height="64">
<path style="fill:#ffffff; stroke:none;" d="M0 0L0 64L74 64L74 0L0 0z"/>
<path style="fill:#9bdbf6; stroke:none;" d="M39.6667 5.33333C39.2222 5.77778 40.2778 5.72223 40.3333 5.66667C40.7778 5.22222 39.7222 5.27777 39.6667 5.33333z"/>
<path style="fill:#33b4ed; stroke:none;" d="M36 8C42.4236 12.8555 47.0106 9.7892 54 10.706C59.8018 11.467 64.4297 16.087 67 21C69.8101 16.88 68.9507 10.7338 63.8256 8.6034C60.7247 7.31444 57.2126 8.4939 54 8.1605C46.3322 7.36473 43.6958 4.13257 36 8z"/>
<path style="fill:#9ddbf7; stroke:none;" d="M46.6667 5.33333C46.2222 5.77778 47.2778 5.72223 47.3333 5.66667C47.7778 5.22222 46.7222 5.27778 46.6667 5.33333M35 10L39 7C36.3934 6.33143 35.683 7.52478 35 10z"/>
<path style="fill:#97d9f6; stroke:none;" d="M49 6C50.2228 7.19518 50.42 7.31643 52 8C50.7772 6.80482 50.58 6.68357 49 6z"/>
<path style="fill:#a9e0f8; stroke:none;" d="M55 7C57.3399 7.56562 59.5711 7.17605 62 7C59.4131 5.93456 57.679 6.21849 55 7z"/>
<path style="fill:#5dc4f1; stroke:none;" d="M57 7C59.0521 7.87425 60.7472 7.95279 63 8C60.9479 7.12575 59.2528 7.04721 57 7z"/>
<path style="fill:#b2e3f8; stroke:none;" d="M63.6667 7.33333C63.2222 7.77781 64.2778 7.72221 64.3333 7.66667C64.7778 7.22224 63.7222 7.27777 63.6667 7.33333z"/>
<path style="fill:#b0e2f8; stroke:none;" d="M52 8C53.2483 8.6848 53.5484 8.74879 55 9C53.7516 8.3152 53.4516 8.25121 52 8z"/>
<path style="fill:#d5f0fc; stroke:none;" d="M65.6667 8.33333C65.2222 8.77776 66.2778 8.72224 66.3333 8.66667C66.7778 8.22221 65.7222 8.27778 65.6667 8.33333z"/>
<path style="fill:#69c8f3; stroke:none;" d="M36.6667 9.33333C36.2222 9.77777 37.2778 9.72224 37.3333 9.66667C37.7778 9.22221 36.7222 9.27779 36.6667 9.33333z"/>
<path style="fill:#4ebef0; stroke:none;" d="M66 9C66.6836 10.58 66.8048 10.7772 68 12C67.3164 10.42 67.1952 10.2228 66 9z"/>
<path style="fill:#e7f6fd; stroke:none;" d="M35 10C37.0443 12.6332 41.5089 15.4118 45 15.3079C48.6841 15.1982 51.1351 12.7394 55 13.9884C60.4433 15.7476 63.321 21.085 69 22C65.3515 16.8238 61.7118 12.656 55 12.0941C51.6419 11.813 48.3134 12.7532 45 12.4869C41.6129 12.2146 38.3929 10.5101 35 10z"/>
<path style="fill:#a3def7; stroke:none;" d="M38 10C39.2484 10.6848 39.5484 10.7488 41 11C39.7516 10.3152 39.4516 10.2512 38 10z"/>
<path style="fill:#5fc5f2; stroke:none;" d="M51 10C52.506 10.683 53.3148 10.8259 55 11C53.494 10.317 52.6852 10.1741 51 10z"/>
<path style="fill:#a1ddf7; stroke:none;" d="M27 11C29.6127 12.0977 32.1645 11.9928 35 12C32.3873 10.9023 29.8355 11.0072 27 11z"/>
<path style="fill:#70cbf3; stroke:none;" d="M41.6667 11.3333C41.2222 11.7778 42.2778 11.7222 42.3333 11.6667C42.7778 11.2222 41.7222 11.2778 41.6667 11.3333z"/>
<path style="fill:#82d2f5; stroke:none;" d="M47.6667 11.3333C47.2222 11.7778 48.2778 11.7222 48.3333 11.6667C48.7778 11.2222 47.7222 11.2778 47.6667 11.3333z"/>
<path style="fill:#c6ebfa; stroke:none;" d="M49 11C51.8897 12.2129 54.8741 11.9983 58 12C55.1103 10.7871 52.1259 11.0017 49 11z"/>
<path style="fill:#8ed5f5; stroke:none;" d="M68.3333 11.6667C68.2778 11.7222 68.2222 12.7778 68.6667 12.3333C68.7222 12.2778 68.7778 11.2222 68.3333 11.6667z"/>
<path style="fill:#c7eafa; stroke:none;" d="M24 12C25.2484 12.6848 25.5484 12.7488 27 13C25.7517 12.3152 25.4516 12.2512 24 12z"/>
<path style="fill:#55c1f1; stroke:none;" d="M27 12C29.6127 13.0977 32.1645 12.9928 35 13C32.3873 11.9023 29.8355 12.0072 27 12z"/>
<path style="fill:#80d1f4; stroke:none;" d="M35.6667 12.3333C35.2222 12.7778 36.2778 12.7222 36.3333 12.6667C36.7778 12.2222 35.7222 12.2778 35.6667 12.3333z"/>
<path style="fill:#bae6f9; stroke:none;" d="M37.6667 12.3333C37.2222 12.7778 38.2778 12.7222 38.3333 12.6667C38.7778 12.2222 37.7222 12.2778 37.6667 12.3333z"/>
<path style="fill:#5fc5f1; stroke:none;" d="M43 12C44.506 12.683 45.3148 12.8259 47 13C45.494 12.317 44.6852 12.1741 43 12z"/>
<path style="fill:#94d8f6; stroke:none;" d="M58.6667 12.3333C58.2222 12.7778 59.2778 12.7222 59.3333 12.6667C59.7778 12.2222 58.7222 12.2778 58.6667 12.3333z"/>
<path style="fill:#b2e3f9; stroke:none;" d="M69 12L69 19C70.0595 16.4657 70.0595 14.5343 69 12z"/>
<path style="fill:#9fdcf7; stroke:none;" d="M23.6667 13.3333C23.2222 13.7778 24.2778 13.7222 24.3333 13.6667C24.7778 13.2222 23.7222 13.2778 23.6667 13.3333z"/>
<path style="fill:#33b4ed; stroke:none;" d="M25.1698 13.7423C21.4246 15.3236 17.2998 20.0788 16.3179 24C15.5872 26.9181 16.5057 30.0955 15.3974 32.946C13.5796 37.621 8.47186 39.5703 7.45525 45C5.40558 55.9473 17.8568 59.6568 26 56.3873C35.4639 52.5877 44.2928 45.4897 53 40.2029C56.5938 38.0209 61.3888 36.0344 63.1065 31.9066C66.0427 24.8504 63.2578 15.3275 55 14.2284C51.1935 13.7218 47.6983 16.214 44.1157 15.7377C37.7993 14.8978 31.9032 10.8993 25.1698 13.7423z"/>
<path style="fill:#8bd5f5; stroke:none;" d="M38.6667 13.3333C38.2222 13.7778 39.2778 13.7222 39.3333 13.6667C39.7778 13.2222 38.7222 13.2778 38.6667 13.3333z"/>
<path style="fill:#b0e3f9; stroke:none;" d="M44.6667 13.3333C44.2222 13.7778 45.2778 13.7222 45.3333 13.6667C45.7778 13.2222 44.7222 13.2778 44.6667 13.3333z"/>
<path style="fill:#abe0f8; stroke:none;" d="M49 13C51.0521 13.8743 52.7472 13.9528 55 14C52.9479 13.1258 51.2528 13.0472 49 13z"/>
<path style="fill:#b4e5f9; stroke:none;" d="M22 14L23 15L22 14z"/>
<path style="fill:#92d8f6; stroke:none;" d="M41 14L42 15L41 14z"/>
<path style="fill:#77cef4; stroke:none;" d="M48.6667 14.3333C48.2222 14.7778 49.2778 14.7222 49.3333 14.6667C49.7778 14.2222 48.7222 14.2778 48.6667 14.3333z"/>
<path style="fill:#93d9f6; stroke:none;" d="M62 14L63 15L62 14z"/>
<path style="fill:#56c1f0; stroke:none;" d="M17 21C19.5075 19.2048 21.2048 17.5075 23 15C19.896 16.4821 18.4821 17.896 17 21z"/>
<path style="fill:#8cd5f5; stroke:none;" d="M43 16C44.2484 16.6848 44.5484 16.7488 46 17C44.7516 16.3152 44.4516 16.2512 43 16z"/>
<path style="fill:#65c7f2; stroke:none;" d="M63.3333 19.6667C63.2778 19.7222 63.2222 20.7778 63.6667 20.3333C63.7222 20.2778 63.7778 19.2222 63.3333 19.6667z"/>
<path style="fill:#abe0f8; stroke:none;" d="M68.3333 19.6667C68.2778 19.7222 68.2222 20.7778 68.6667 20.3333C68.7222 20.2778 68.7778 19.2222 68.3333 19.6667z"/>
<path style="fill:#d4effb; stroke:none;" d="M15 21L15 24C16.0154 22.8606 16.3087 22.3884 17 21L15 21z"/>
<path style="fill:#5fc4f1; stroke:none;" d="M64 21L64 31C65.3457 27.793 65.3457 24.207 64 21z"/>
<path style="fill:#a7dff8; stroke:none;" d="M65 22L65 28C65.9511 25.7147 65.9511 24.2853 65 22z"/>
<path style="fill:#b4e4f9; stroke:none;" d="M14 24L14 32C15.1614 29.2301 15.1614 26.7699 14 24z"/>
<path style="fill:#5ec4f1; stroke:none;" d="M15 24L15 32C16.1614 29.2301 16.1614 26.7699 15 24z"/>
<path style="fill:#ceeefb; stroke:none;" d="M65.3333 28.6667C65.2778 28.7222 65.2222 29.7778 65.6667 29.3333C65.7222 29.2778 65.7778 28.2222 65.3333 28.6667z"/>
<path style="fill:#a1ddf7; stroke:none;" d="M63 31L63 33C64.6352 32.4549 64.4549 32.6352 65 31L63 31z"/>
<path style="fill:#91d7f6; stroke:none;" d="M15 32L15 35C15.6961 33.4463 15.6961 33.5537 15 32z"/>
<path style="fill:#63c6f2; stroke:none;" d="M12 37C13.58 36.3164 13.7772 36.1952 15 35C13.42 35.6836 13.2228 35.8048 12 37z"/>
<path style="fill:#80d1f4; stroke:none;" d="M60 35L61 36L60 35z"/>
<path style="fill:#b4e4f9; stroke:none;" d="M57 37C58.8092 37.5743 59.0688 37.4653 61 37C59.3407 36.5935 58.7582 36.6914 57 37z"/>
<path style="fill:#a4def7; stroke:none;" d="M55.6667 38.3333C55.2222 38.7778 56.2778 38.7222 56.3333 38.6667C56.7778 38.2222 55.7222 38.2778 55.6667 38.3333z"/>
<path style="fill:#7fd0f4; stroke:none;" d="M9 39C8.01432 40.4785 8 40.2032 8 42C9.28923 40.5574 9.40094 40.7663 9 39z"/>
<path style="fill:#bfe8f9; stroke:none;" d="M49 42C51.7635 42.4702 53.5528 41.369 56 40C53.2365 39.5298 51.4472 40.631 49 42z"/>
<path style="fill:#97d9f6; stroke:none;" d="M7.33333 42.6667C7.27777 42.7222 7.22223 43.7778 7.66667 43.3333C7.72222 43.2778 7.77778 42.2222 7.33333 42.6667z"/>
<path style="fill:#b5e4f9; stroke:none;" d="M47.6667 43.3333C47.2222 43.7778 48.2778 43.7222 48.3333 43.6667C48.7778 43.2222 47.7222 43.2778 47.6667 43.3333z"/>
<path style="fill:#9edbf7; stroke:none;" d="M46 44L47 45L46 44z"/>
<path style="fill:#aee1f8; stroke:none;" d="M39 48C41.7635 48.4702 43.5528 47.369 46 46C43.2365 45.5298 41.4472 46.631 39 48z"/>
<path style="fill:#b2e3f9; stroke:none;" d="M7.33333 49.6667C7.27778 49.7222 7.22222 50.7778 7.66667 50.3333C7.72223 50.2778 7.77777 49.2222 7.33333 49.6667z"/>
<path style="fill:#cdedfb; stroke:none;" d="M36 52L40 50C37.7774 49.6311 37.2655 50.1405 36 52z"/>
<path style="fill:#9bdaf6; stroke:none;" d="M32 52C33.8092 52.5743 34.0688 52.4653 36 52C34.3407 51.5935 33.7582 51.6914 32 52z"/>
<path style="fill:#bee8f9; stroke:none;" d="M8 52C8.68357 53.58 8.80482 53.7772 10 55C9.31643 53.42 9.19518 53.2228 8 52z"/>
<path style="fill:#c6ebfa; stroke:none;" d="M31.6667 53.3333C31.2222 53.7778 32.2778 53.7222 32.3333 53.6667C32.7778 53.2222 31.7222 53.2778 31.6667 53.3333z"/>
<path style="fill:#cdedfb; stroke:none;" d="M25 57C27.8883 57.4096 29.1145 56.1529 31 54C28.7778 54.8102 27.0098 55.7386 25 57z"/>
<path style="fill:#6ac8f2; stroke:none;" d="M12 56C13.2228 57.1952 13.42 57.3164 15 58C13.7772 56.8048 13.58 56.6836 12 56z"/>
<path style="fill:#48bcef; stroke:none;" d="M16 58C19.0825 59.2818 21.7923 58.7625 25 58C22.0953 57.1063 19.0524 57.8705 16 58z"/>
<path style="fill:#9bdaf7; stroke:none;" d="M14.6667 58.3333C14.2222 58.7778 15.2778 58.7222 15.3333 58.6667C15.7778 58.2222 14.7222 58.2778 14.6667 58.3333z"/>
<path style="fill:#d4f0fb; stroke:none;" d="M23.6667 58.3333C23.2222 58.7778 24.2778 58.7222 24.3333 58.6667C24.7778 58.2222 23.7222 58.2778 23.6667 58.3333z"/>
</svg>
